HIERARCHY
ROOT Hips
{
	OFFSET 0.000000 0.000000 0.000000 
	CHANNELS 6 Xposition Yposition Zposition Yrotation Zrotation Xrotation 
	JOINT Lumbar
	{
		OFFSET 0.000000 0.000000 0.000000 
		CHANNELS 3 Zrotation Xrotation Yrotation
		JOINT Neck
		{
			OFFSET 0.000000 0.445665 0.000000 
			CHANNELS 3 Zrotation Xrotation Yrotation
			End Site
			{
				OFFSET 0.000000 0.227535 0.000000 
			}
		}
		JOINT RightShoulder
		{
			OFFSET 0.019635 0.377685 0.194865 
			CHANNELS 3 Zrotation Xrotation Yrotation
			JOINT RightElbow
			{
				OFFSET 0.000000 -0.243375 0.000000 
				CHANNELS 2 Zrotation Yrotation
				JOINT RightWrist
				{
					OFFSET 0.000000 -0.264825 0.000000 
					CHANNELS 2 Zrotation Xrotation
					End Site
					{
						OFFSET 0.006600 -0.176220 0.000990 
					}
				}
			}
		}
		JOINT LeftShoulder
		{
			OFFSET 0.019635 0.377685 -0.194865 
			CHANNELS 3 Zrotation Xrotation Yrotation
			JOINT LeftElbow
			{
				OFFSET 0.000000 -0.243375 0.000000 
				CHANNELS 2 Zrotation Yrotation
				JOINT LeftWrist
				{
					OFFSET 0.000000 -0.264825 0.000000 
					CHANNELS 2 Zrotation Xrotation
					End Site
					{
						OFFSET 0.006600 -0.176220 -0.000990 
					}
				}
			}
		}
	}
	JOINT RightHip
	{
		OFFSET 0.052140 -0.069960 0.075570 
		CHANNELS 3 Zrotation Xrotation Yrotation
		JOINT RightKnee
		{
			OFFSET 0.000000 -0.402270 0.000000 
			CHANNELS 1 Zrotation
			JOINT RightAnkle
			{
				OFFSET 0.000000 -0.404085 0.000000 
				CHANNELS 3 Zrotation Xrotation Yrotation
				End Site
				{
					OFFSET 0.204105 -0.089430 0.008415 
				}
			}
		}
	}
	JOINT LeftHip
	{
		OFFSET 0.052140 -0.069960 -0.075570 
		CHANNELS 3 Zrotation Xrotation Yrotation
		JOINT LeftKnee
		{
			OFFSET 0.000000 -0.402270 0.000000 
			CHANNELS 1 Zrotation
			JOINT LeftAnkle
			{
				OFFSET 0.000000 -0.404085 0.000000 
				CHANNELS 3 Zrotation Xrotation Yrotation
				End Site
				{
					OFFSET 0.204105 -0.089430 -0.008415 
				}
			}
		}
	}
}
MOTION
Frames: 26
Frame Time: 0.02
0 0.95578 0 183.12482 0 -3.91997 -0.1206 2.79537 -4.82124 -23.72916 5.65821 1.80534 -43.22039 -74.20116 -89.80187 20.1629 73.50709 -23.33883 -2.38501 -22.15823 67.57151 76.96555 26.53796 -66.28143 -32.8959 1.83604 -2.90818 1.4905 4.64706 -6.25986 -3.17351 -3.37468 -6.24222 -0.4421 7.91781 -2.62723 -8.48419 5.58084 1.53581 -2.34196
-0.00044 0.95577 0 183.16242 0 -3.92102 -0.09341 2.80106 -4.7798 -23.75175 5.66836 1.76318 -43.23546 -74.19498 -89.80178 20.15992 73.49614 -23.3176 -2.35459 -22.16263 67.57676 76.99354 26.52512 -66.26518 -32.89005 1.84623 -2.93968 1.49576 4.60146 -6.2604 -3.16146 -3.39077 -6.23997 -0.45809 7.92062 -2.64006 -8.48534 5.58702 1.45485 -2.35473
-0.00088 0.95576 0 183.19986 0 -3.92205 -0.0663 2.80667 -4.73865 -23.77422 5.67851 1.72137 -43.24987 -74.18883 -89.80169 20.15693 73.48482 -23.29605 -2.3247 -22.16697 67.58168 77.02136 26.51237 -66.24925 -32.88417 1.8564 -2.9711 1.50099 4.55624 -6.26097 -3.14938 -3.4068 -6.23787 -0.47403 7.92339 -2.65303 -8.48656 5.59329 1.37451 -2.36727
-0.00132 0.95574 0 183.23691 0 -3.92307 -0.03927 2.812 -4.6982 -23.79638 5.68867 1.68058 -43.26272 -74.18246 -89.80159 20.15397 73.47204 -23.27353 -2.29655 -22.17135 67.58559 77.04885 26.49998 -66.23445 -32.87812 1.86644 -3.00249 1.50623 4.5122 -6.26158 -3.13711 -3.42274 -6.2363 -0.48994 7.92613 -2.66676 -8.4881 5.59995 1.29581 -2.37896
-0.00176 0.95573 1e-05 183.27591 0 -3.92421 -0.01181 2.81879 -4.65403 -23.82009 5.69866 1.63441 -43.28498 -74.17688 -89.80152 20.15095 73.4671 -23.25676 -2.25908 -22.17579 67.59516 77.07818 26.48585 -66.21367 -32.87299 1.877 -3.03403 1.51152 4.46202 -6.2619 -3.12592 -3.43917 -6.23187 -0.50599 7.92914 -2.67652 -8.48795 5.60451 1.20842 -2.3951
-0.0022 0.95572 1e-05 183.3108 0 -3.92506 0.01471 2.82252 -4.61779 -23.84058 5.70906 1.59965 -43.28653 -74.16987 -89.80139 20.148 73.44551 -23.22744 -2.24146 -22.17989 67.59253 77.10351 26.47529 -66.20556 -32.86592 1.88657 -3.06524 1.51664 4.42482 -6.26287 -3.1124 -3.45455 -6.23353 -0.52174 7.93152 -2.69465 -8.49137 5.61351 1.1395 -2.40183
-0.00268 0.95568 -1e-05 183.33453 0 -3.92531 0.03915 2.8174 -4.60304 -23.85171 5.72048 1.5968 -43.23522 -74.15654 -89.80108 20.14562 73.37694 -23.16464 -2.27915 -22.18503 67.5567 77.11886 26.47561 -66.23369 -32.85303 1.89261 -3.09624 1.52181 4.42425 -6.26541 -3.09226 -3.46745 -6.25244 -0.53684 7.93267 -2.73728 -8.50522 5.63544 1.12134 -2.38158
-0.00315 0.95563 -4e-05 183.35414 0 -3.92523 0.06255 2.80924 -4.59637 -23.85966 5.73234 1.60538 -43.16203 -74.14213 -89.80072 20.14327 73.29201 -23.08885 -2.33672 -22.1895 67.50843 77.12999 26.47936 -66.27447 -32.83822 1.89778 -3.12681 1.52671 4.43663 -6.26865 -3.06975 -3.47925 -6.27744 -0.55158 7.9331 -2.78816 -8.52261 5.66177 1.12184 -2.35201
-0.00362 0.95559 -6e-05 183.37552 0 -3.92515 0.08615 2.80272 -4.58626 -23.86939 5.74406 1.60845 -43.09612 -74.12978 -89.80039 20.14058 73.21473 -23.01818 -2.38508 -22.19295 67.46548 77.14237 26.48082 -66.30865 -32.82462 1.90393 -3.15717 1.5314 4.44258 -6.27168 -3.04845 -3.49129 -6.29937 -0.56641 7.93357 -2.8344 -8.538 5.68569 1.11397 -2.32733
-0.00411 0.95555 -0.0001 183.39724 0 -3.92568 0.11098 2.79515 -4.57518 -23.87779 5.75553 1.61285 -43.04195 -74.11098 -89.80002 20.13911 73.13524 -22.95091 -2.43464 -22.20188 67.42393 77.15756 26.48523 -66.34626 -32.80974 1.90776 -3.18928 1.53748 4.45086 -6.2742 -3.02669 -3.50438 -6.32254 -0.58165 7.93527 -2.88434 -8.55496 5.71132 1.1057 -2.29983
-0.00455 0.95551 -0.0001 183.41739 0 -3.92486 0.13288 2.78901 -4.56805 -23.88809 5.76764 1.61718 -42.95749 -74.10514 -89.79973 20.1353 73.05815 -22.87334 -2.48586 -22.19936 67.37653 77.1659 26.48447 -66.37993 -32.79687 1.91603 -3.21762 1.54059 4.45735 -6.27801 -3.00521 -3.51506 -6.34466 -0.59582 7.93421 -2.92862 -8.5696 5.73442 1.10262 -2.27603
-0.00488 0.95548 -3e-05 183.43329 0 -3.92055 0.14795 2.78781 -4.56947 -23.90533 5.78132 1.61867 -42.80008 -74.13723 -89.79968 20.12349 72.97669 -22.77166 -2.54176 -22.16435 67.3157 77.15634 26.46706 -66.39802 -32.79171 1.93844 -3.23597 1.53571 4.45566 -6.28467 -2.98617 -3.51901 -6.36144 -0.6082 7.92585 -2.95442 -8.57586 5.74946 1.11005 -2.2643
-0.00516 0.95547 8e-05 183.4479 0 -3.91486 0.1599 2.78811 -4.5746 -23.92443 5.79567 1.61965 -42.61188 -74.18207 -89.79971 20.10961 72.90074 -22.65982 -2.59783 -22.11797 67.24944 77.14001 26.44456 -66.41204 -32.78834 1.96507 -3.2505 1.52784 4.4517 -6.29267 -2.96737 -3.52061 -6.37707 -0.61932 7.91472 -2.97437 -8.57982 5.76178 1.12194 -2.25667
-0.00546 0.95545 0.00017 183.46375 0 -3.9097 0.17262 2.78754 -4.57831 -23.94205 5.80972 1.62077 -42.43432 -74.21984 -89.79969 20.0977 72.83244 -22.55195 -2.65044 -22.07756 67.18591 77.1268 26.42543 -66.42898 -32.78298 1.98864 -3.26659 1.52123 4.44882 -6.30046 -2.94767 -3.52354 -6.39391 -0.63029 7.90477 -2.99758 -8.58561 5.77535 1.13128 -2.24746
-0.00577 0.95543 0.00026 183.47682 0 -3.90494 0.18809 2.78764 -4.58134 -23.96217 5.82367 1.6227 -42.27039 -74.26293 -89.79973 20.08149 72.72182 -22.44653 -2.71759 -22.034 67.12092 77.11335 26.4021 -66.44179 -32.78239 2.01688 -3.28342 1.51498 4.44627 -6.30672 -2.93094 -3.52542 -6.40828 -0.64423 7.89513 -3.01866 -8.58841 5.78905 1.14342 -2.23677
-0.00604 0.95541 0.00036 183.49529 0 -3.89905 0.19702 2.78677 -4.58638 -23.97764 5.8381 1.62266 -42.07076 -74.29803 -89.79966 20.0737 72.69948 -22.33353 -2.75478 -21.994 67.05772 77.09873 26.38608 -66.46212 -32.77249 2.03653 -3.2978 1.50731 4.44225 -6.31632 -2.90845 -3.52885 -6.42717 -0.65178 7.8842 -3.04254 -8.59662 5.80171 1.15062 -2.23023
-0.00621 0.95538 0.00046 183.53026 0 -3.89002 0.18945 2.78249 -4.59755 -23.97931 5.85269 1.61723 -41.7828 -74.30751 -89.79936 20.09002 72.93135 -22.20425 -2.70434 -21.96944 67.00202 77.08361 26.39319 -66.50364 -32.73498 2.03045 -3.30635 1.49625 4.43517 -6.33615 -2.86702 -3.53781 -6.46119 -0.64103 7.87008 -3.07675 -8.62216 5.81272 1.14226 -2.23453
-0.00633 0.95536 0.00057 183.57051 0 -3.87996 0.17524 2.77724 -4.61032 -23.97634 5.86789 1.60979 -41.45989 -74.30859 -89.79892 20.11479 73.24963 -22.06748 -2.62454 -21.94844 66.94815 77.06741 26.40751 -66.55283 -32.68828 2.01576 -3.31258 1.4839 4.42654 -6.35904 -2.82031 -3.5483 -6.49936 -0.62405 7.85479 -3.11374 -8.65287 5.82265 1.12881 -2.24286
-0.00647 0.95533 0.00068 183.60748 0 -3.87063 0.16356 2.77266 -4.62133 -23.97586 5.88349 1.60326 -41.15095 -74.31384 -89.79847 20.1355 73.52085 -21.93258 -2.56124 -21.92381 66.89265 77.05094 26.41741 -66.59892 -32.64684 2.00567 -3.31988 1.47227 4.41828 -6.37965 -2.778 -3.55767 -6.53398 -0.61054 7.84022 -3.14864 -8.67999 5.83268 1.11812 -2.24912
-0.00662 0.95531 0.00078 183.64802 0 -3.86017 0.15389 2.7672 -4.63676 -23.9739 5.8964 1.59677 -40.84776 -74.31809 -89.79834 20.15718 73.82563 -21.8032 -2.48461 -21.90679 66.8402 77.03722 26.43192 -66.64356 -32.6011 1.99287 -3.32697 1.46001 4.41137 -6.40405 -2.72737 -3.56875 -6.57544 -0.59435 7.82477 -3.18677 -8.71225 5.84427 1.10574 -2.25649
-0.00674 0.95529 0.0009 183.68252 0 -3.85182 0.13843 2.7633 -4.64343 -23.97384 5.91489 1.5897 -40.52624 -74.32221 -89.79751 20.17874 74.08033 -21.66141 -2.4288 -21.87551 66.78206 77.01789 26.43864 -66.69269 -32.56185 1.98354 -3.33399 1.44876 4.40129 -6.42131 -2.69267 -3.57668 -6.60383 -0.58221 7.81088 -3.21897 -8.7351 5.85238 1.09559 -2.26251
-0.00677 0.95529 0.00103 183.69812 0 -3.84976 0.1091 2.76397 -4.62442 -23.98068 5.94985 1.58156 -40.14982 -74.32837 -89.79467 20.19905 74.18129 -21.48099 -2.43715 -21.79909 66.70657 76.98109 26.42179 -66.75583 -32.54493 1.98658 -3.34146 1.44076 4.3831 -6.41779 -2.70451 -3.57525 -6.59352 -0.58334 7.80182 -3.2336 -8.73034 5.85117 1.09299 -2.26319
-0.00677 0.9553 0.00117 183.70765 0 -3.84982 0.07409 2.76621 -4.59674 -23.98955 5.99018 1.5729 -39.75886 -74.33456 -89.79116 20.21875 74.22795 -21.28962 -2.46745 -21.70917 66.62558 76.93921 26.39695 -66.82264 -32.5345 1.99328 -3.34895 1.43379 4.36175 -6.40705 -2.73234 -3.57065 -6.57019 -0.58866 7.79434 -3.2423 -8.71605 5.8465 1.09275 -2.26247
-0.00678 0.95531 0.00131 183.7206 0 -3.84879 0.04134 2.76772 -4.57372 -23.99709 6.02726 1.56444 -39.38294 -74.3404 -89.78801 20.238 74.29544 -21.10725 -2.48816 -21.62871 66.54789 76.90109 26.37593 -66.88548 -32.51962 1.99781 -3.3564 1.42627 4.34171 -6.39982 -2.75204 -3.56767 -6.55386 -0.59174 7.786 -3.25408 -8.70635 5.84341 1.0913 -2.26279
-0.0068 0.95531 0.00144 183.73094 0 -3.84829 0.00967 2.76932 -4.54769 -24.00598 6.06777 1.55604 -38.96958 -74.34729 -89.78457 20.26061 74.3814 -20.90729 -2.50662 -21.53438 66.46677 76.85652 26.35426 -66.95818 -32.51054 2.00411 -3.36387 1.41909 4.32218 -6.39171 -2.77519 -3.56398 -6.53316 -0.5961 7.77822 -3.2643 -8.69561 5.84028 1.09025 -2.26159
-0.0068 0.95532 0.00158 183.74521 0 -3.84719 -0.02547 2.77103 -4.52588 -24.01286 6.10239 1.54742 -38.63194 -74.35223 -89.7816 20.27595 74.41587 -20.74188 -2.53484 -21.46561 66.39159 76.82454 26.33209 -67.01125 -32.4913 2.00779 -3.37133 1.41143 4.3008 -6.3837 -2.79502 -3.561 -6.51834 -0.59879 7.76965 -3.27635 -8.68485 5.8364 1.089 -2.26312
